<svg width="111" height="111" viewBox="0 0 111 111" fill="none" xmlns="http://www.w3.org/2000/svg">
<rect x="16.6011" y="17.9033" width="93.4223" height="93.0968" fill="#FFD2DA"/>
<path d="M0 0.976562L16.6012 17.9032V111L0 94.0733V0.976562Z" fill="#FFD2DA"/>
<path d="M0 0.97654L93.7478 0L110.349 17.9032H16.6012L0 0.97654Z" fill="#FFD2DA"/>
<path d="M19.5308 19.8564H46.2228V46.5485H19.5308V19.8564Z" fill="white"/>
<path d="M6.83578 4.88281H31.412L42.9677 16.4385H18.5543L6.83578 4.88281Z" fill="white"/>
<path d="M67.0557 4.88281H91.632L103.188 16.4385H78.7742L67.0557 4.88281Z" fill="white"/>
<rect x="49.4779" y="19.8564" width="26.6921" height="26.6921" fill="#FFD2DA"/>
<rect x="79.4252" y="19.8564" width="26.6921" height="26.6921" fill="white"/>
<rect x="49.478" y="50.4546" width="26.6921" height="26.6921" fill="white"/>
<rect x="19.5308" y="50.4546" width="26.6921" height="26.6921" fill="#FFD2DA"/>
<rect x="79.4253" y="50.4546" width="26.6921" height="26.6921" fill="#FFD2DA"/>
<rect x="49.478" y="81.0527" width="26.6921" height="26.6921" fill="#FFD2DA"/>
<rect x="19.5308" y="81.0527" width="26.6921" height="26.6921" fill="white"/>
<rect x="79.4253" y="81.0527" width="26.6921" height="26.6921" fill="white"/>
<path d="M3.90616 68.0323L15.4619 79.7508V104.327L3.90616 92.7713V68.0323Z" fill="white"/>
<path d="M3.90616 7.48682L15.4619 19.2053V43.7815L3.90616 32.2258V7.48682Z" fill="white"/>
<path d="M30.5682 26.5795H25.6032V23.2645H39.2682V26.5795H34.3182V43.0645H30.5682V26.5795Z" fill="#FFD2DA"/>
<path d="M60.5615 23.2645H64.3115V43.0645H60.5615V23.2645Z" fill="white"/>
<path d="M94.7265 39.7195C95.7665 39.7195 96.6915 39.5745 97.5015 39.2845C98.3115 38.9845 98.9065 38.6895 99.2865 38.3995L100.891 41.5945C100.431 41.9945 99.6365 42.3995 98.5065 42.8095C97.3865 43.2195 96.0465 43.4245 94.4865 43.4245C93.0265 43.4245 91.6615 43.1695 90.3915 42.6595C89.1215 42.1395 88.0065 41.4195 87.0465 40.4995C86.0865 39.5695 85.3365 38.4845 84.7965 37.2445C84.2565 35.9945 83.9865 34.6445 83.9865 33.1945C83.9865 31.7445 84.2515 30.3945 84.7815 29.1445C85.3215 27.8845 86.0715 26.7895 87.0315 25.8595C87.9915 24.9295 89.1065 24.2045 90.3765 23.6845C91.6565 23.1645 93.0265 22.9045 94.4865 22.9045C96.0465 22.9045 97.3865 23.1095 98.5065 23.5195C99.6365 23.9295 100.431 24.3345 100.891 24.7345L99.2865 27.9295C98.9065 27.6395 98.3115 27.3495 97.5015 27.0595C96.6915 26.7595 95.7665 26.6095 94.7265 26.6095C93.6665 26.6095 92.7215 26.7795 91.8915 27.1195C91.0715 27.4595 90.3715 27.9345 89.7915 28.5445C89.2215 29.1445 88.7865 29.8395 88.4865 30.6295C88.1865 31.4195 88.0365 32.2595 88.0365 33.1495C88.0365 34.0495 88.1865 34.8995 88.4865 35.6995C88.7865 36.4895 89.2215 37.1895 89.7915 37.7995C90.3715 38.3995 91.0715 38.8695 91.8915 39.2095C92.7215 39.5495 93.6665 39.7195 94.7265 39.7195Z" fill="#FFD2DA"/>
<path d="M30.5682 57.2245H25.6032V53.9095H39.2682V57.2245H34.3182V73.7095H30.5682V57.2245Z" fill="white"/>
<path d="M60.7624 53.9095H64.5274L72.1474 73.7095H68.1574L66.6124 69.4345H58.6924L57.1174 73.7095H53.1124L60.7624 53.9095ZM59.9224 66.1195H65.3824L62.6674 58.4395H62.6224L59.9224 66.1195Z" fill="#FFD2DA"/>
<path d="M94.7265 70.3645C95.7665 70.3645 96.6915 70.2195 97.5015 69.9295C98.3115 69.6295 98.9065 69.3345 99.2865 69.0445L100.891 72.2395C100.431 72.6395 99.6365 73.0445 98.5065 73.4545C97.3865 73.8645 96.0465 74.0695 94.4865 74.0695C93.0265 74.0695 91.6615 73.8145 90.3915 73.3045C89.1215 72.7845 88.0065 72.0645 87.0465 71.1445C86.0865 70.2145 85.3365 69.1295 84.7965 67.8895C84.2565 66.6395 83.9865 65.2895 83.9865 63.8395C83.9865 62.3895 84.2515 61.0395 84.7815 59.7895C85.3215 58.5295 86.0715 57.4345 87.0315 56.5045C87.9915 55.5745 89.1065 54.8495 90.3765 54.3295C91.6565 53.8095 93.0265 53.5495 94.4865 53.5495C96.0465 53.5495 97.3865 53.7545 98.5065 54.1645C99.6365 54.5745 100.431 54.9795 100.891 55.3795L99.2865 58.5745C98.9065 58.2845 98.3115 57.9945 97.5015 57.7045C96.6915 57.4045 95.7665 57.2545 94.7265 57.2545C93.6665 57.2545 92.7215 57.4245 91.8915 57.7645C91.0715 58.1045 90.3715 58.5795 89.7915 59.1895C89.2215 59.7895 88.7865 60.4845 88.4865 61.2745C88.1865 62.0645 88.0365 62.9045 88.0365 63.7945C88.0365 64.6945 88.1865 65.5445 88.4865 66.3445C88.7865 67.1345 89.2215 67.8345 89.7915 68.4445C90.3715 69.0445 91.0715 69.5145 91.8915 69.8545C92.7215 70.1945 93.6665 70.3645 94.7265 70.3645Z" fill="white"/>
<path d="M30.5682 87.1247H25.6032V83.8097H39.2682V87.1247H34.3182V103.61H30.5682V87.1247Z" fill="#FFD2DA"/>
<path d="M56.3384 93.6947C56.3384 94.9547 56.5984 96.0947 57.1184 97.1147C57.6484 98.1347 58.3734 98.9447 59.2934 99.5447C60.2134 100.135 61.2784 100.43 62.4884 100.43C63.6984 100.43 64.7634 100.135 65.6834 99.5447C66.6134 98.9447 67.3384 98.1347 67.8584 97.1147C68.3784 96.0947 68.6384 94.9547 68.6384 93.6947C68.6384 92.4347 68.3784 91.2997 67.8584 90.2897C67.3384 89.2697 66.6134 88.4597 65.6834 87.8597C64.7634 87.2597 63.6984 86.9597 62.4884 86.9597C61.2784 86.9597 60.2134 87.2597 59.2934 87.8597C58.3734 88.4597 57.6484 89.2697 57.1184 90.2897C56.5984 91.2997 56.3384 92.4347 56.3384 93.6947ZM52.4384 93.6947C52.4384 92.2547 52.6884 90.9147 53.1884 89.6747C53.6984 88.4247 54.4084 87.3347 55.3184 86.4047C56.2284 85.4747 57.2934 84.7497 58.5134 84.2297C59.7434 83.7097 61.0684 83.4497 62.4884 83.4497C63.9284 83.4497 65.2584 83.7097 66.4784 84.2297C67.6984 84.7497 68.7584 85.4747 69.6584 86.4047C70.5684 87.3347 71.2734 88.4247 71.7734 89.6747C72.2734 90.9147 72.5234 92.2547 72.5234 93.6947C72.5234 95.1447 72.2784 96.4947 71.7884 97.7447C71.2984 98.9847 70.6034 100.075 69.7034 101.015C68.8034 101.945 67.7434 102.67 66.5234 103.19C65.3034 103.71 63.9584 103.97 62.4884 103.97C60.9984 103.97 59.6384 103.71 58.4084 103.19C57.1884 102.67 56.1284 101.945 55.2284 101.015C54.3384 100.075 53.6484 98.9847 53.1584 97.7447C52.6784 96.4947 52.4384 95.1447 52.4384 93.6947Z" fill="white"/>
<path d="M86.2125 83.8097H98.4975V87.1247H89.9325V92.0747H98.3775V95.2847H89.9325V100.295H98.4975V103.61H86.2125V83.8097Z" fill="#FFD2DA"/>
</svg>
